<?xml version="1.0" encoding="utf-8"?>
<!-- Generator: Adobe Illustrator 21.0.0, SVG Export Plug-In . SVG Version: 6.00 Build 0)  -->
<svg version="1.1" id="Layer_1" xmlns="http://www.w3.org/2000/svg" xmlns:xlink="http://www.w3.org/1999/xlink" x="0px" y="0px"
	 viewBox="0 0 2302 1080" style="enable-background:new 0 0 2302 1080;" xml:space="preserve">
<style type="text/css">
	.st0{fill:url(#SVGID_1_);}
	.st1{fill:#86BBD8;}
	.st2{opacity:0.13;}
	.st3{filter:url(#Adobe_OpacityMaskFilter);}
	.st4{fill:#FFFFFF;}
	.st5{mask:url(#SVGID_2_);}
	.st6{fill:url(#SVGID_3_);}
	.st7{fill:url(#SVGID_4_);}
	.st8{fill:url(#SVGID_5_);}
	.st9{opacity:0.37;}
	.st10{fill:#FFFFFC;}
	.st11{fill:#F5F5F5;}
	.st12{fill:#E8E8E8;}
	.st13{opacity:0.6;}
	.st14{opacity:0.44;}
	.st15{opacity:0.3;}
	.st16{opacity:0.1;}
	.st17{fill:#94C85B;}
	.st18{fill:#EE5E80;}
	.st19{fill:#6BA543;}
	.st20{fill:#D396C2;}
	.st21{fill:#BE3D95;}
	.st22{fill:#761E14;}
	.st23{fill:#4B823D;}
	.st24{fill:#F26419;}
	.st25{fill:#CF202A;}
	.st26{fill:#88C881;}
	.st27{fill:#EE4223;}
	.st28{fill:#B4CB34;}
	.st29{opacity:0.4;}
	.st30{fill:#40270A;}
	.st31{fill:#6C431F;}
	.st32{fill:#573616;}
	.st33{fill:#8E5B31;}
	.st34{fill:#0D1416;}
	.st35{fill:#070602;}
	.st36{fill:#523314;}
	.st37{fill:#2E383A;}
	.st38{fill:#FAC28E;}
	.st39{fill:#C6C632;}
	.st40{fill:#836C5A;}
	.st41{fill:#A3856F;}
	.st42{fill:#D8571E;}
	.st43{fill:#CC6537;}
	.st44{fill:#D8A97D;}
	.st45{fill:#3E4144;}
	.st46{fill:none;stroke:#CC6537;stroke-width:2.1247;stroke-miterlimit:10;}
	.st47{fill:#ADA734;}
</style>
<g>
	
		<linearGradient id="SVGID_1_" gradientUnits="userSpaceOnUse" x1="982.05" y1="-42" x2="982.05" y2="178.3" gradientTransform="matrix(1 0 0 -1 0 1080)">
		<stop  offset="0" style="stop-color:#FFFFFF"/>
		<stop  offset="3.615510e-02" style="stop-color:#EBEBEB"/>
		<stop  offset="0.1451" style="stop-color:#B5B5B5"/>
		<stop  offset="0.2579" style="stop-color:#848484"/>
		<stop  offset="0.3722" style="stop-color:#5C5C5C"/>
		<stop  offset="0.4884" style="stop-color:#3A3A3A"/>
		<stop  offset="0.6071" style="stop-color:#212121"/>
		<stop  offset="0.7293" style="stop-color:#0E0E0E"/>
		<stop  offset="0.8571" style="stop-color:#040404"/>
		<stop  offset="1" style="stop-color:#000000"/>
	</linearGradient>
	<rect x="2.1" y="901.7" class="st0" width="1959.9" height="220.3"/>
</g>
<g>
	<rect x="-14.1" y="-21" class="st1" width="2507.9" height="1176"/>
</g>
<g id="grain_5_" class="st2">
	<g>
	</g>
</g>
<defs>
	<filter id="Adobe_OpacityMaskFilter" filterUnits="userSpaceOnUse" x="-433.4" y="585.2" width="4886.7" height="941.6">
		<feColorMatrix  type="matrix" values="1 0 0 0 0  0 1 0 0 0  0 0 1 0 0  0 0 0 1 0"/>
	</filter>
</defs>
<mask maskUnits="userSpaceOnUse" x="-433.4" y="585.2" width="4886.7" height="941.6" id="SVGID_2_">
	<g class="st3">
		<rect x="-8.6" y="3.8" class="st4" width="3845.7" height="1081"/>
	</g>
</mask>
<g class="st5">
	<linearGradient id="SVGID_3_" gradientUnits="userSpaceOnUse" x1="1875.2871" y1="807.3917" x2="1864.9041" y2="504.5529">
		<stop  offset="0.3712" style="stop-color:#4B983C"/>
		<stop  offset="0.4907" style="stop-color:#469238"/>
		<stop  offset="0.6454" style="stop-color:#36822B"/>
		<stop  offset="0.7378" style="stop-color:#2A7521"/>
	</linearGradient>
	<path class="st6" d="M2114.8,1296.8H-96.8l14-394l396-40c0,0,49.1,8,199.5-28c56.2-190.3,469.2-257.4,953.4-53
		c123.8,52.3,103.3,91.4,105.3,92c375.1-112.6,460.2-287,1142.9-29l245.6-76c38.7-29.2,548.6-247.8,903.3,13"/>
	<linearGradient id="SVGID_4_" gradientUnits="userSpaceOnUse" x1="2196.8447" y1="884.0488" x2="2196.8447" y2="431.7356">
		<stop  offset="2.162187e-02" style="stop-color:#5DA32F"/>
		<stop  offset="0.245" style="stop-color:#5AA02F"/>
		<stop  offset="0.439" style="stop-color:#4F972F"/>
		<stop  offset="0.6213" style="stop-color:#3D882E"/>
		<stop  offset="0.655" style="stop-color:#39842E"/>
	</linearGradient>
	<path class="st7" d="M1970.5,1253.9l-1990,15l-40.1-458.9c0,0,175.4-171.1,355.9-173.9s333,96.9,472.2,147.7
		c317.8,115.9,521.7,68.9,633.6-37.4c83.9-79.7,360.7-210.1,542.4,101.5c0,0,204.6,3.9,239.6-5c400-102,586.5-294,1079.7,37
		c496.3,30,1090.8-780,1187,165C4547,1989.8,1970.5,1253.9,1970.5,1253.9z"/>
	
		<linearGradient id="SVGID_5_" gradientUnits="userSpaceOnUse" x1="1796.751" y1="1236.1179" x2="1796.751" y2="784.6512" gradientTransform="matrix(1 9.414688e-03 -9.414688e-03 1 9.4467 -38.0631)">
		<stop  offset="0.2414" style="stop-color:#5DA32F"/>
		<stop  offset="0.509" style="stop-color:#5AA02F"/>
		<stop  offset="0.7413" style="stop-color:#4F972F"/>
		<stop  offset="0.9597" style="stop-color:#3D882E"/>
		<stop  offset="1" style="stop-color:#39842E"/>
	</linearGradient>
	<path class="st8" d="M3882.7,1172.4c-569.2,9.3-1138.5,18.5-1707.7,27.8c-492.7,8-985.9,0-1478.7-1.1c-260-0.6-520-1.2-780-1.8
		c4-53,8-106,12-158.9c4.2-55.2-382.4-127.5-360.7-179.4c39.3-94.5,586.3-114,667.7-109.8c319.6,16.6,613.6,115.9,935.9,55.9
		c352.5-65.7,622.2,40,864,26.1c231.1-13.3,335.4-54.9,554-56.8c288.7-2.6,448.7,90,675.2,59.3c231.3-31.4,557.5-71.5,764.3,76.2"/>
</g>
<g>
	<g class="st9">
		
			<image style="overflow:visible;opacity:0.1;" width="347" height="201" xlink:href="2A20D906.png"  transform="matrix(1 0 0 1 1809.8335 224.8335)">
		</image>
		<g>
			<g>
				<path class="st10" d="M2147.1,358.7c-0.6-10.5-5.7-20.5-14.1-27.7c-3.1-2-6.2-4.1-9.4-6.1c-6.8-3.2-14-4.8-21.6-4.7
					c0-0.4,0-0.9,0-1.3c-0.6-11.5-6.3-22.6-15.5-30.4c-3.4-2.2-6.9-4.5-10.3-6.7c-7.9-3.8-16.4-5.5-25.3-5.2
					c-4.2,0.7-8.3,1.4-12.5,2.1c-5.2,1.5-10,3.8-14.2,6.7c0.2-1.9,0.2-3.8,0.1-5.7c-1.6-30.1-28.9-48.9-60.1-49.7
					c-30.5-0.8-54.7,26.6-54.6,52.9c-1.6-0.1-3.2-0.2-4.8-0.1c-2.9,0.5-5.9,1-8.8,1.4c-5.7,1.7-10.7,4.5-14.8,8.5
					c-4.6,4.5-7.6,10.2-8.7,16.2c-5.6,0.1-11.2,0.9-16.8,2.5c-4.5,1.9-9,3.8-13.4,5.7c-8.6,5-15.3,11.6-20.2,19.8
					c-0.2,0.5-0.4,1-0.8,1.4c-1.8,4.5-3.6,8.9-5.4,13.4c-2.3,9.4-1.8,18.6,1.3,27.8c4.6,13.1,14.8,24.3,28.2,30.8
					c13.8,6.7,30.3,8.1,45.2,3.7c10.5-3,19.6-8.7,26.5-16.1c10.4,9.5,25.2,15,41.1,15.4c18.5,0.5,34.5-10.2,43.4-24.5
					c7.4,14,23.6,22.3,41.7,22.8c14.3,0.4,26.7-7.4,34.2-18.1c1.5,0.9,2.9,1.9,4.4,2.8c7.2,3.5,14.9,5,23,4.7l0,0
					c3.8-0.6,7.6-1.2,11.3-1.9c7.4-2.2,13.7-5.8,19-11C2143.4,380.3,2147.7,369.5,2147.1,358.7z"/>
				<path class="st11" d="M2041.4,293.3c6.8-5.8,17.7-7.3,26.1-3.6c8.4,3.7,13.8,12.5,13,21c-3.4-6.4-9.3-10.7-16.2-14
					C2057.4,293.4,2049.1,292.3,2041.4,293.3z"/>
				<path class="st11" d="M1881.6,309.4c0.4-8.5,6.9-16.6,15.8-19.3c8.9-2.7,19.4,0,25.4,6.6c-7.3-2.4-14.9-1.6-22.3,0.4
					C1893,299.1,1886.3,303.7,1881.6,309.4z"/>
				<path class="st12" d="M1982.8,315.8c-3.8,7.2-12.7,11.9-21.5,11.3c-8.8-0.6-16.8-6.6-19.2-14.3c5.4,4.5,12.2,6.4,19.4,7.2
					C1968.8,320.8,1976.4,319.1,1982.8,315.8z"/>
				<path class="st12" d="M2067,345.5c-3.8,7.2-12.7,11.9-21.5,11.3c-8.8-0.6-16.8-6.6-19.2-14.3c5.4,4.5,12.2,6.4,19.4,7.2
					C2053,350.5,2060.6,348.8,2067,345.5z"/>
				<path class="st12" d="M1947.7,366.9c-6.1,11.8-20.6,19.4-34.9,18.4c-14.2-1-27.2-10.7-31.2-23.2c8.7,7.3,19.8,10.4,31.6,11.7
					C1925,375,1937.4,372.2,1947.7,366.9z"/>
				<path class="st12" d="M2142.4,342.6c-6.1,20.3-26.7,35.6-50.7,35.6c-4.4,0-8.6-0.6-12.7-1.5c-9.2,7-20.9,11.2-33.6,11.2
					c-17.3,0-32.8-7.9-42.5-19.9c-6.8,11-18.2,19.5-32,22.9c-9.4,2.3-18.8,2.3-28.2,0c-2.4-0.6-4.6-1.3-6.8-2.2
					c-6.5-2.4-12.2-5.9-17.3-10.5c-1.6-1.9-3.2-3.8-4.9-5.7c-0.7,1.3-1.4,2.7-2.2,4c-2.8,3.3-5.6,6.6-8.4,9.9
					c-10,9.1-23.7,14.3-37.9,14.3c-14.2,0-27.9-5.2-37.9-14.3c-5.5-5.1-9.6-10.9-12.3-17.5c0.4,3.5,1.2,7.1,2.4,10.6
					c4.6,13.1,14.8,24.3,28.2,30.8c13.8,6.7,30.3,8.1,45.2,3.7c10.5-3,19.6-8.7,26.5-16.1c10.4,9.5,25.2,15,41.1,15.4
					c18.5,0.5,34.5-10.2,43.4-24.5c7.4,14,23.6,22.3,41.7,22.8c14.3,0.4,26.7-7.4,34.2-18.1c1.5,0.9,2.9,1.9,4.4,2.8
					c7.2,3.5,14.9,5,23,4.7l0,0c3.8-0.6,7.6-1.2,11.3-1.9c7.4-2.2,13.7-5.8,19-11c8.1-7.9,12.4-18.7,11.9-29.5
					C2146.8,353.1,2145.2,347.6,2142.4,342.6z"/>
			</g>
		</g>
	</g>
	<g class="st13">
		
			<image style="overflow:visible;opacity:0.1;" width="298" height="195" xlink:href="2A20D90A.png"  transform="matrix(1 0 0 1 651.3686 172.3686)">
		</image>
		<g>
			<g>
				<path class="st10" d="M936.3,280.3c-1.6-20.5-18.9-32.9-38.4-32.9c-2.4,0-4.8,0.3-7.1,0.9c1.4-4.6,2-9.4,1.7-14.1
					c-1.8-22.9-21.1-36.6-42.8-36.6c-12.3,0-22.9,7.2-29.5,17.1c-3.2-6.1-7.5-11.6-12.8-16.3c-4.7-5.3-10-9.8-16.8-12.7
					c-5.7-2.4-11.4-5-17.5-5.6c-5.6-0.5-11.1-0.8-16.7-1c-10.9,0.8-20.4,4.4-29.5,10.4c-13.2,8.7-22.4,22.9-25.4,38.4
					c-0.1,0.6-0.2,1.2-0.3,1.9c-16.1,2.1-30.8,12.1-38.3,27.1c-4,8.2-5.7,16.8-5,25.9c0.3,1.3,0.6,2.7,0.8,4
					c0.3,1.9,0.7,3.7,1.2,5.6c0.2,1,0.4,2,0.6,3c2.5,6.9,6.3,13,11.4,18.2c0.4,0.5,0.9,0.9,1.4,1.4c0.4,0.4,0.8,0.9,1.3,1.3
					c0.1,0.1,0.2,0.1,0.2,0.2c0.1,0.1,0.3,0.2,0.4,0.3c3,2.6,6.3,4.8,9.8,6.6c0.1,0.1,0.3,0.2,0.4,0.3c2.4,1.2,4.8,2.1,7.3,2.9
					c0.3,0.1,0.7,0.2,1,0.3c1.4,0.4,2.8,0.2,4.2,0.4c0,0,0-0.6,0-0.6h0c1.4,0,2.8,1,4.2,1.2c0.3,0,0.7,0.4,1,0.4
					c1.4,0.1,2.7,0.3,4.1,0.3c0.1,0,0.1,0.1,0.2,0.1c1.2,0,2.4,0,3.6-0.1c0.2,0,0.4-0.1,0.7-0.1c0.9-0.1,1.9-0.2,2.8-0.3
					c0.5-0.1,1-0.1,1.5-0.2c2.1-0.4,4.2-0.9,6.3-1.6c11.8,21.5,37.4,35.3,62.4,24.7c0.5-0.2,0.9-0.4,1.4-0.6
					c1.2-0.5,2.3-1.1,3.4-1.6c10.7-4.4,19.9-12.4,25.6-24c0.8-1.6,1.4-3.2,2-4.8c0.2,0.1,0.4,0.3,0.6,0.4c8.4,4.1,17.2,5.8,26.5,5.2
					c4.3-0.9,8.6-1.8,12.9-2.7c7.7-2.8,14.4-7.2,20-13c7,5.9,16.4,9.1,26.3,9.1C922.9,318.7,937.7,298.6,936.3,280.3z"/>
				<path class="st11" d="M720.3,232.9c-0.6-15.1,9-30.1,22.9-36c13.9-5.9,31.3-2.3,41.8,8.6c-12.1-3.3-24.2-1.1-36,3.4
					C737.4,213.4,727.2,222.3,720.3,232.9z"/>
				<path class="st12" d="M756.9,304.2c-5.2,9.8-16.8,15.8-27.8,14.5c-11-1.4-20.8-10-23.4-20.8c6.5,6.6,15,9.6,24.1,11
					C738.9,310.3,748.7,308.4,756.9,304.2z"/>
				<path class="st12" d="M936.3,280.3c-0.5-7.1-3-13.2-6.8-18.2c-8.3,14.4-23.9,24.4-41.5,24.4c-8.8,0-17-2.5-24.1-6.7
					c-6.8,13.9-20.4,24.3-40.6,24.3c-4.9,0-9.4-0.7-13.5-1.8c-5.2,17.3-19.5,31.4-42.9,31.4c-20,0-33.4-10.3-40.1-24.1
					c-0.2,0.1-0.4,0.3-0.7,0.4c-7.4,4.3-15.4,6.5-23.9,6.5c-4.2-0.6-8.4-1.1-12.6-1.7c-4.1-1.4-8.4-2.6-12-5.1
					c-7.1-4.2-12.8-9.9-17-17c-0.5-0.7-0.9-1.4-1.3-2.1c0.1,0.6,0.2,1.1,0.4,1.7c0.2,1,0.4,2,0.6,3c2.5,6.9,6.3,13,11.4,18.2
					c0.4,0.5,0.9,0.9,1.4,1.4c0.4,0.4,0.8,0.9,1.3,1.3c0.1,0.1,0.2,0.1,0.2,0.2c0.1,0.1,0.3,0.2,0.4,0.3c3,2.6,6.3,4.8,9.8,6.6
					c0.1,0.1,0.3,0.2,0.4,0.3c2.4,1.2,4.8,2.1,7.3,2.9c0.3,0.1,0.7,0.2,1,0.3c1.4,0.4,2.8,0.9,4.2,1.1c0,0,0,0.1,0,0.1h0
					c1.4,0,2.8,0.3,4.2,0.5c0.3,0,0.7,0,1,0c1.4,0.1,2.7,0.2,4.1,0.2c0.1,0,0.1,0,0.2,0c1.2,0,2.4,0,3.6-0.1c0.2,0,0.4-0.1,0.7-0.1
					c0.9-0.1,1.9-0.2,2.8-0.4c0.5-0.1,1-0.1,1.5-0.2c2.1-0.4,4.2-0.9,6.3-1.6c11.8,21.5,37.4,35.3,62.4,24.7
					c0.5-0.2,0.9-0.4,1.4-0.6c1.2-0.5,2.3-1.1,3.4-1.6c10.7-4.4,19.9-12.4,25.6-24c0.8-1.6,1.4-3.2,2-4.8c0.2,0.1,0.4,0.3,0.6,0.4
					c8.4,4.1,17.2,5.8,26.5,5.2c4.3-0.9,8.6-1.8,12.9-2.7c7.7-2.8,14.4-7.2,20-13c7,5.9,16.4,9.1,26.3,9.1
					C922.9,318.7,937.7,298.6,936.3,280.3z"/>
			</g>
		</g>
	</g>
	<g class="st14">
		
			<image style="overflow:visible;opacity:0.1;" width="299" height="207" xlink:href="2A20D90D.png"  transform="matrix(1 0 0 1 1429.9741 184.9742)">
		</image>
		<g>
			<g>
				<path class="st10" d="M1718.6,304c-0.1-0.3-0.1-0.7-0.2-1c0-0.3-0.1-0.5-0.1-0.7c-1.5-16.7-10.9-31.8-24.5-39.4
					c-0.8-0.5-1.6-0.9-2.5-1.3c-0.1-0.1-0.2-0.1-0.4-0.2c-3.6-1.7-7.6-2.9-11.8-3.4c-1.2-0.2-2.3-0.3-3.5-0.4
					c2.4-6.3,3.4-13.1,2.4-20.1c-0.1-0.4-0.1-0.8-0.2-1.2c-0.1-0.5-0.2-1-0.3-1.5c-1.4-10.5-6.2-20.5-13.2-27.7
					c-0.1-0.1-0.3-0.3-0.4-0.4c-0.3-0.3-0.6-0.6-0.9-0.9c-13.2-13.3-32.8-17.3-50.4-4.2c-8.2,6.1-13.5,14.9-16,24.4
					c-5-13-14-23.9-25.6-30.3c-8.9-4.8-18.3-6.8-28.1-6c-9.4,0.9-18.1,4.2-26,10c-0.7,0.4-1.3,0.8-2,1.3
					c-7.6,5.7-13.5,13.1-17.7,22.2c-1.5,3.4-2.7,6.8-3.5,10.3c-5.6,0.4-11.2,1.7-16.7,3.8c-15.4,6-28.4,18.6-35.7,34.7
					c-5.1,11.5-7.2,23.6-6.4,36.3c1.3,18.2,9.1,34.8,21.3,46.9c4.3,4.2,9.1,8.1,14.3,10.6c11.9,5.5,20.2,8.3,33.3,7.2
					c7.1-0.6,15.2-2.9,22.2-6.5c0.6,0.7,1.3,1.4,2,2.1c3,3.4,6.9,6.2,11,8.1c10.6,4.8,14.9,6,26.4,5.8c3-0.1,6-0.8,8.9-1.7
					c6.6-1.3,12.8-4,18.5-8.2c4-2.9,7.5-6.5,10.4-10.6c0.2,0.2,0.4,0.3,0.6,0.5c10.9,10.5,26.5,13.9,40.1,8.6
					c7.2-2.8,13.6-7.9,18.4-14.5c8.4,2.3,17.4,2,25.8-1.3C1706,348.4,1722.2,325.9,1718.6,304z"/>
				<path class="st11" d="M1631,209c8.2-3.6,18.3-1.1,24.3,6c6,7.1,7.4,18.5,3.5,27.2c-0.6-8.1-4.2-14.9-9-21
					C1645.1,215.1,1638.2,210.9,1631,209z"/>
				<path class="st11" d="M1518.8,216.8c3.3-10.6,12.9-18.4,23.1-18.8c10.2-0.4,20.2,6.7,24.2,17.1c-6.8-5.5-14.9-7.2-23.4-7.2
					C1534.2,207.9,1525.6,211.3,1518.8,216.8z"/>
				<path class="st12" d="M1614.7,336.4c-3.6,8.2-12,13.6-20.2,12.9c-8.3-0.7-15.8-7.5-18.1-16.3c5.1,5.2,11.5,7.3,18.3,8.2
					C1601.5,342.1,1608.7,340.2,1614.7,336.4z"/>
				<path class="st12" d="M1567.1,269.1c-4.6,10.6-15.4,17.5-26.1,16.6c-10.6-0.9-20.3-9.6-23.3-20.9c6.5,6.6,14.8,9.4,23.6,10.6
					C1550.1,276.5,1559.4,274,1567.1,269.1z"/>
				<path class="st12" d="M1718.6,304c-0.1-0.3-0.1-0.7-0.2-1c0-0.3-0.1-0.5-0.1-0.7c-0.9-10.3-4.8-19.9-10.9-27.6
					c0.1,0.5,0.1,1,0.2,1.6c0,0.4,0,0.7-0.1,1.1c0,9.2-2.1,17.7-6.3,25.6c-2.4,3.4-4.8,6.8-7.2,10.3c-6.8,7.5-15.5,12.3-24.9,14.1
					c-0.7,1.8-1.5,3.6-2.4,5.3c-2.4,3.4-4.7,6.8-7.1,10.1c-8.5,9.3-20.1,14.7-32.1,14.7c-11,0-21.6-4.5-29.8-12.4
					c-10.6,8.3-23.4,13.3-37.2,13.3c-15.5,0-29.8-6.2-41-16.5c-4.8,3.2-10.1,5.6-15.7,7.3c-5.7,0.8-11.4,1.7-17.2,2.5
					c-0.3,0-0.6-0.1-1-0.1c-11.6,0-22.5-3.3-32.5-9.7c-4.3-3.7-8.7-7.4-13-11.1c-0.1-0.1-0.1-0.1-0.2-0.2
					c3.7,9.4,9.3,17.8,16.3,24.8c4.3,4.2,9.1,8.1,14.3,10.6c11.9,5.5,20.2,8.3,33.3,7.2c7.1-0.6,15.2-2.9,22.2-6.5
					c0.6,0.7,1.3,1.4,2,2.1c3,3.4,6.9,6.2,11,8.1c10.6,4.8,14.9,6,26.4,5.8c3-0.1,6-0.8,8.9-1.7c6.6-1.3,12.8-4,18.5-8.2
					c4-2.9,7.5-6.5,10.4-10.6c0.2,0.2,0.4,0.3,0.6,0.5c10.9,10.5,26.5,13.9,40.1,8.6c7.2-2.8,13.6-7.9,18.4-14.5
					c8.4,2.3,17.4,2,25.8-1.3C1706,348.4,1722.2,325.9,1718.6,304z"/>
			</g>
		</g>
	</g>
	<g class="st15">
		
			<image style="overflow:visible;opacity:0.1;" width="455" height="239" xlink:href="2A20D90E.png"  transform="matrix(1 0 0 1 149.0094 194.0094)">
		</image>
		<g>
			<g>
				<path class="st10" d="M593,348.8c-1-11.9-7.5-23.2-17.8-31.1c-3.8-2.2-7.6-4.5-11.4-6.7c-3.4-1.4-6.8-2.5-10.3-3.3
					c0,0,0,0-0.1,0c0-0.3,0-0.7,0.1-1c-0.5-5.6-2-10.8-4.3-15.8c-0.7-3-1.5-6.1-2.2-9.1c-3.6-8.9-9.5-16.6-17.7-22.9
					c-12.5-9.6-29.3-14.5-45.9-13.4c-4.7,0.3-9.3,1.2-13.8,2.4c-3.4-12.3-10.9-23.7-22.3-32.1c-11.5-8.5-20-11.9-34.5-15
					c-6.7-1.4-13.9-1.4-20.8-1c-12,0.9-22.9,4.2-32.9,10c-4.4,3.4-8.7,6.7-13.1,10.1c-4.3,4.3-7.8,8.9-10.4,13.9
					c-0.3,0.4-0.5,0.8-0.8,1.3c-4.4,7.8-6.8,15.9-7.4,24.3c-7.2-2.2-15.1-3.3-22.5-2.7c-8.9,0.6-17,3.1-24.4,7.4
					c-5.6,3.3-10.3,7.5-14,12.4c-11.8-4.6-25-7-38.7-7c-43.1,0-75.9,38.9-72.8,74.2c3.5,39.7,41.9,63.6,85,63.6
					c16,0,30.5-5.3,42.3-13.8c7.3,9,16.5,16.1,27.9,21.1c0.3,0.1,0.6,0.2,1,0.3c6.1,2.5,12.4,4.4,18.8,5.4c4.8,1,9.4,1.3,13.8,1.1
					c1.8,0,3.7,0,5.6-0.2c5-0.4,9.8-1.1,14.5-2.3c9.1-1.6,17.5-4.7,25.4-9.3c6.6-3.9,12.3-8.6,17-14c1.3,1.1,2.5,2.3,3.9,3.3
					c4.7,2.8,9.4,5.5,14.1,8.3c10.8,4.6,22.2,6.6,34.3,5.8c5.6-1,11.1-2,16.7-3.1c10.8-3.4,20-8.8,27.6-16.3c1.5-1.4,2.8-3,4.1-4.5
					c6.6,4.3,13.5,6.8,21.9,8.4c5,1,10.3,0.8,15.5,0.8c4.5-0.8,8.9-1.6,13.4-2.5c8.7-2.7,16.1-7.1,22.2-13.1
					C589.3,373.6,594,361.1,593,348.8z"/>
				<path class="st11" d="M358.8,227.5c12.3-14.6,35.4-21.5,55.4-16.6c20,4.9,35.6,21.2,37.5,39.3c-10.2-12.1-25-19.1-41.4-23.6
					C393.7,221.9,375.2,222.7,358.8,227.5z"/>
				<path class="st12" d="M321.9,352.4c-6.9,11.4-22.4,18.4-37.1,16.9c-14.7-1.6-27.7-11.7-31.2-24.2c8.7,7.6,20,11.2,32.1,12.9
					C297.9,359.5,310.9,357.3,321.9,352.4z"/>
				<path class="st12" d="M532.2,348.4c-2.6,12.7-14.8,23.5-29.4,25.9c-14.5,2.4-30.5-3.7-38.2-14.7c10.9,5,22.9,5.3,35.1,3.7
					C511.9,361.6,523.5,356,532.2,348.4z"/>
				<path class="st12" d="M592.9,348.2c-1.2,1.2-2.3,2.3-3.6,3.4c-9.1,7.9-19.8,13.3-32.2,16.4c-6.5,0.8-12.9,1.5-19.4,2.3
					c-0.9,0.1-1.8,0.1-2.7,0.1c-10.4,0-20.7-2-30.1-5.8c-13.2,11-31,17.9-50.4,17.9c-18.2,0-35.1-6.1-48-16
					c-1.7,1.9-3.5,3.7-5.4,5.4c-13.6,11.9-32.3,18.6-51.5,18.6c-19.3,0-37.9-6.8-51.5-18.6c-5-4.4-9.2-9.3-12.5-14.7
					c-13.4,15-34.2,24.8-57.3,24.8c-36.4,0-67.3-24.4-72-55.3c-1.2,5.7-1.7,11.4-1.2,17.1c3.5,39.7,41.9,63.6,85,63.6
					c16,0,30.5-5.3,42.3-13.8c7.3,9,16.5,16.1,27.9,21.1c0.3,0.1,0.6,0.2,1,0.3c6.1,2.5,12.4,4.4,18.8,5.4c4.8,1,9.4,1.3,13.8,1.1
					c1.8,0,3.7,0,5.6-0.2c5-0.4,9.8-1.1,14.5-2.3c9.1-1.6,17.5-4.7,25.4-9.3c6.6-3.9,12.3-8.6,17-14c1.3,1.1,2.5,2.3,3.9,3.3
					c4.7,2.8,9.4,5.5,14.1,8.3c10.8,4.6,22.2,6.6,34.3,5.8c5.6-1,11.1-2,16.7-3.1c10.8-3.4,20-8.8,27.6-16.3c1.5-1.4,2.8-3,4.1-4.5
					c6.6,4.3,13.5,6.8,21.9,8.4c5,1,10.3,0.8,15.5,0.8c4.5-0.8,8.9-1.6,13.4-2.5c8.7-2.7,16.1-7.1,22.2-13.1
					c9.4-9.3,14.1-21.7,13-34C592.9,348.6,592.9,348.4,592.9,348.2z"/>
			</g>
		</g>
	</g>
	<g>
		
			<image style="overflow:visible;opacity:0.1;" width="326" height="174" xlink:href="2A20D90C.png"  transform="matrix(1 0 0 1 1021.544 232.544)">
		</image>
		<g>
			<g>
				<path class="st10" d="M1334.3,334c-0.7-9.5-5.2-18.5-12.4-24.8c-2.6-1.8-5.3-3.5-7.9-5.3c-6.1-3-12.4-4.2-19.2-3.7l-9.3,2
					c-2.4,0.9-4.7,1.9-6.8,3.2c-3.6-8.8-9.1-16.8-16.3-23.1c-4.4-2.9-8.8-5.9-13.1-8.8c-10.1-4.9-20.7-7-31.8-6.2l-15.4,3.3
					c-3.2-4.3-6.8-8.2-10.8-11.7c-5.5-3.7-11-7.4-16.6-11.1c-12.7-6.2-26.1-8.8-40.1-7.8c-6.5,1.4-13,2.7-19.5,4.1
					c-12.6,4.5-23.4,11.8-32.3,21.8c-8.2,9.3-14,20.6-16.9,32.5c-1.1,0-2.2,0-3.4,0.1c-3.1,0.7-6.3,1.3-9.4,2
					c-6.1,2.2-11.3,5.7-15.6,10.5c-6.6,7.4-9.9,17.4-9.1,27.3c0.7,9.6,5.3,18.6,12.5,25c2.7,1.8,5.3,3.6,8,5.3
					c6.1,3,12.5,4.2,19.3,3.8c3.1-0.7,6.3-1.3,9.4-2c2-0.7,3.8-1.6,5.6-2.5c2.1,2.3,4.2,4.5,6.6,6.5c5.5,3.7,11,7.4,16.5,11.1
					c12.7,6.2,26.1,8.8,40.1,7.8c6.5-1.4,13-2.7,19.5-4.1c7.8-2.8,15-6.7,21.4-11.6c2.6,1.7,5.2,3.5,7.7,5.2
					c10.1,4.9,20.7,7,31.8,6.2c5.2-1.1,10.3-2.2,15.5-3.3c10-3.6,18.6-9.3,25.7-17.3c1.5-1.7,2.8-3.4,4.1-5.3
					c0.5,0.4,0.9,0.9,1.4,1.3c2.6,1.8,5.3,3.5,7.9,5.3c6.1,3,12.4,4.2,19.2,3.7l9.3-2c6-2.1,11.2-5.6,15.4-10.4
					C1331.8,353.7,1335.1,343.8,1334.3,334z"/>
				<path class="st11" d="M1112.5,262.5c10.1-12.4,28-17.7,43.2-12.7c15.2,5,26.5,19.9,27.3,35.8c-7.4-11-18.5-17.7-30.9-22.2
					C1139.5,258.8,1125.3,258.8,1112.5,262.5z"/>
				<path class="st12" d="M1122.3,335.3c-4.8,9-15.3,14.5-25.4,13.2c-10.1-1.2-19-9.2-21.4-19.1c6,6,13.7,8.8,22.1,10.1
					C1105.9,340.9,1114.8,339.1,1122.3,335.3z"/>
				<path class="st12" d="M1210.8,328.7c-1.9,10.1-10.5,18.6-20.6,20.4c-10.1,1.8-21.1-3.1-26.4-11.9c7.6,4,15.9,4.3,24.3,3.1
					C1196.7,339,1204.7,334.7,1210.8,328.7z"/>
				<path class="st12" d="M1311.5,346.7c-16.2,0-30.9-7.4-40.9-19c-9.1,17.4-27.4,29.4-48,29.4c-13.6,0-26.1-5.3-35.7-13.8
					c-9.7,14.2-26,23.6-44.2,23.6c-18.7,0-35.4-10-45-24.9c-7.1,3.4-14.9,5.2-22.9,5.2c-17.8,0-34.7-9.1-44.5-23.8
					c-1.6,4.7-2.3,9.7-1.9,14.7c0.7,9.6,5.3,18.6,12.5,25c2.7,1.8,5.3,3.6,8,5.3c6.1,3,12.5,4.2,19.3,3.8c3.1-0.7,6.3-1.3,9.4-2
					c2-0.7,3.8-1.6,5.6-2.5c2.1,2.3,4.2,4.5,6.6,6.5c5.5,3.7,11,7.4,16.5,11.1c12.7,6.2,26.1,8.8,40.1,7.8c6.5-1.4,13-2.7,19.5-4.1
					c7.8-2.8,15-6.7,21.4-11.6c2.6,1.7,5.2,3.5,7.7,5.2c10.1,4.9,20.7,7,31.8,6.2c5.2-1.1,10.3-2.2,15.5-3.3
					c10-3.6,18.6-9.3,25.7-17.3c1.5-1.7,2.8-3.4,4.1-5.3c0.5,0.4,0.9,0.9,1.4,1.3c2.6,1.8,5.3,3.5,7.9,5.3c6.1,3,12.4,4.2,19.2,3.7
					l9.3-2c6-2.1,11.2-5.6,15.4-10.4c4.8-5.5,7.9-12.3,8.8-19.5C1327.2,344.8,1319.5,346.7,1311.5,346.7z"/>
			</g>
		</g>
	</g>
</g>
<g>
	<g>
		<ellipse class="st16" cx="1024.8" cy="842.9" rx="14" ry="3"/>
		<g>
			<g>
				<g>
					<path class="st17" d="M1025.9,842.9l-2.3-0.3c0-0.2,3.2-22.9-4.9-41.4c-6.1-13.9-0.9-22.5,4.1-30.7c2.1-3.4,5.4-7.1,6.7-10.9
						l1,1c-1.4,4.1-3.6,7.7-5.7,11.1c-5,8.1-9.6,15.7-4,28.5C1029.3,819.3,1026.1,841.9,1025.9,842.9z"/>
				</g>
				<path class="st17" d="M1022.9,810c0,0-10.4,2.3-15-8.8C1008,801.2,1019.6,797.5,1022.9,810z"/>
				<path class="st17" d="M1018.7,797c0,0-2.3-10.4,8.8-14.9C1027.6,782.1,1031.3,793.7,1018.7,797z"/>
				<path class="st17" d="M1019.4,779.3c0,0-8.4-6.6-2.7-17.2C1016.7,762.2,1027,768.8,1019.4,779.3z"/>
			</g>
			<g>
				<g>
					<path class="st17" d="M1021,806.3c-0.1-0.2-7.2-15.7-13.7-23.7l0.7-0.6c6.6,8.1,13.8,23.8,13.8,23.9L1021,806.3z"/>
				</g>
				<path class="st18" d="M1000.5,781c0,0-3.2,3.3-4.8,1.2c-1.7-2.1-1.2-5.6,2.8-5.6c0,0-2.9-3.1-0.1-5.5c3-2.5,5.1,1.4,5.1,1.4
					s1.6-4.6,4.7-2.4c2.5,1.8,0.5,5.8-1.8,5.5L1000.5,781z"/>
				<path class="st17" d="M1000.5,781c0,0,3.2,4.5,7.5,1.1c0,0,1.9-1.9-1.5-6.4C1006.5,775.6,1001.6,777.6,1000.5,781z"/>
			</g>
			<g>
				<g>
					<path class="st17" d="M1026.8,836.8c0-0.2,0.8-17.3,4-27.1l-0.8-0.3c-3.1,9.9-4,27.2-4,27.3L1026.8,836.8z"/>
				</g>
				<path class="st18" d="M1036.5,805.6c0,0,4.2,1.9,4.9-0.7c0.8-2.5-1-5.6-4.7-4.2c0,0,1.5-4-2-5.1c-3.7-1.2-4.3,3.2-4.3,3.2
					s-3.2-3.7-5.3-0.4c-1.7,2.6,1.6,5.6,3.7,4.4L1036.5,805.6z"/>
				<path class="st17" d="M1036.5,805.6c0,0-1.3,5.4-6.6,3.8c0,0-2.5-1.1-0.9-6.5C1029,802.9,1034.3,802.9,1036.5,805.6z"/>
			</g>
		</g>
	</g>
	<g>
		<g>
			<g>
				<g>
					<path class="st17" d="M1024.7,842.5l0.9-1.3c-0.1-0.1-12.7-8.8-18.2-21.1c-4.1-9.3-10.7-10.6-17-11.8c-2.6-0.5-5.9-0.5-8.4-1.6
						l0,0.9c2.6,1.2,5.4,1.7,8.1,2.2c6.2,1.2,12.1,2.3,15.9,10.9C1011.6,833.5,1024.2,842.2,1024.7,842.5z"/>
				</g>
				<path class="st17" d="M1009.9,826.2c0,0,5.8-4.1,2.4-11.3C1012.3,814.9,1005.2,818.9,1009.9,826.2z"/>
				<path class="st17" d="M1005.4,818.3c0,0-4.1-5.8-11.4-2.4C994,815.9,998.1,823,1005.4,818.3z"/>
				<path class="st17" d="M996.4,810.6c0,0,0.5-7.1-7.2-9.1C989.1,801.5,987.8,809.6,996.4,810.6z"/>
			</g>
			<g>
				<g>
					<path class="st17" d="M1009,823.6c0-0.1-4.5-10.6-5.5-17.5l-0.6,0.1c1,6.9,5.5,17.5,5.6,17.6L1009,823.6z"/>
				</g>
				<path class="st18" d="M1005.7,802.1c0,0,3-0.1,2.8-1.8c-0.3-1.8-2.2-3.1-4-1.1c0,0-0.2-2.9-2.7-2.5c-2.6,0.4-1.6,3.2-1.6,3.2
					s-3-1.3-3.3,1.3c-0.2,2.1,2.6,2.9,3.5,1.6L1005.7,802.1z"/>
				<path class="st17" d="M1005.7,802.1c0,0,0.8,3.6-2.9,4.2c0,0-1.8,0.1-2.5-3.6C1000.4,802.6,1003.6,801,1005.7,802.1z"/>
			</g>
			<g>
				<g>
					<path class="st17" d="M1021.3,840.2c-0.1-0.1-8.9-7.4-15.2-10.3l0.3-0.5c6.3,2.9,15.2,10.3,15.3,10.4L1021.3,840.2z"/>
				</g>
				<path class="st18" d="M1001.6,830.9c0,0-1,2.9-2.6,2.1c-1.6-0.8-2.3-3,0.1-4.2c0,0-2.7-1-1.6-3.3c1.1-2.4,3.5-0.7,3.5-0.7
					s-0.4-3.2,2.2-2.8c2,0.4,2,3.3,0.5,3.8L1001.6,830.9z"/>
				<path class="st17" d="M1001.6,830.9c0,0,3.3,1.8,4.8-1.5c0,0,0.6-1.7-2.8-3.4C1003.7,826,1001.3,828.6,1001.6,830.9z"/>
			</g>
		</g>
	</g>
</g>
<g>
	<g>
		<ellipse class="st16" cx="1931.9" cy="946.1" rx="17.8" ry="3.9"/>
		<g>
			<g>
				<path class="st19" d="M1931.2,946l-1-0.3c0.1-0.4,10.7-35.7-10.7-71.9l2.9-1.9C1944.2,909,1931.3,945.7,1931.2,946z"/>
				<path class="st20" d="M1922,873.5c0,0-6.9,3.4-12.1-6.9c-3.9-7.8-5.5-11.2-13.4-10.3c0,0,2.9-5.3,8.2-4.3c0,0-0.8-3.9-5.7-5.3
					c0,0,5.5-2.6,9.7,1.1c0,0,0.4-7.8,4.9-8.5c0,0-0.9,5.9,0.8,7.8c0,0,3.2-4.5,8.9-3.5c0,0-5.1,3.7-3.9,8.6
					C1921.3,859.9,1930.7,867.6,1922,873.5z"/>
			</g>
			<path class="st21" d="M1907.8,859.1c-0.1,1.3,3.8,7,5,9c1.4,2.4,5.6,5,8.7,2.9c3.1-2.1,2.7-5.2,0.8-9.3c-1.9-4.1-3.9-9.1-4.2-9.9
				c-0.3-0.8-0.6,2.6,0.8,6.5c0,0-2.6-4.8-3.7-5.1c-1.1-0.3,2.8,7.4,2.8,7.4s-5-6.5-5.8-6.5c-0.8,0,3.5,7.6,3.5,7.6s-4-5.7-5-5.7
				c-0.9,0,2.3,6.5,2.3,6.5s-3.1-4.9-3.7-5.1c-0.6-0.1,2.3,5.6,2.3,5.6S1907.9,857.6,1907.8,859.1z"/>
			<g>
				<path class="st19" d="M1934,919.4c0,0-11.2-5.7-10.5-13.5C1923.5,905.8,1931.3,909.3,1934,919.4z"/>
			</g>
			<g>
				<path class="st19" d="M1926.8,885.1c0,0,12.4-6.6,9.9-16.3C1936.7,868.9,1926.4,872.9,1926.8,885.1z"/>
			</g>
			<g>
				<path class="st19" d="M1933.3,903.9c0,0-2.7-22,12.3-30.4C1945.6,873.5,1952,890,1933.3,903.9z"/>
			</g>
			<g>
				<path class="st19" d="M1932.6,936.3c0,0,0.9-15.3-15.4-19.6C1917.2,916.6,1912,928.4,1932.6,936.3z"/>
			</g>
		</g>
	</g>
	<g>
		<g>
			<g>
				<path class="st22" d="M1958.3,876.4c0,0-16.5,0.8-12.2-9.2c4.3-10,14-4.2,15.8,2.8c0,0-4.2-16.3,8.3-13.5
					c12.5,2.8,1.3,16.1,1.3,16.1s13.4-9.9,15.9-0.2c2.6,9.7-11.8,18.2-17.2,6.6l-11.5-3.3"/>
				<g>
					<g>
						<path class="st23" d="M1930.9,945.8c0.1-0.2,26.9-44.6,31.2-59.6l1.3,0.4c-4.3,15.2-31.2,59.7-31.3,60L1930.9,945.8z"/>
					</g>
					<path class="st24" d="M1958.2,876.3c0,0-6.8-1.1-5.7-5c1.1-3.9,5.9-6.3,9.4-1.3c0,0,1.4-6.4,6.8-4.9c5.7,1.6,2.7,7.6,2.7,7.6
						s7.1-2.1,7,3.8c-0.1,4.7-6.8,5.7-8.4,2.5L1958.2,876.3z"/>
					<path class="st23" d="M1958.2,876.3c0,0-2.8,7.9,5.2,10.3c0,0,4.1,0.7,6.7-7.5C1970,879.1,1963.4,874.7,1958.2,876.3z"/>
				</g>
				<path class="st23" d="M1956.3,901.3c0,0,11.8-10.2,19.1-4.1C1975.4,897.2,1965.9,906.9,1956.3,901.3z"/>
				<path class="st23" d="M1949.3,913.9c0,0,2.1-11.5-7.5-16.2C1941.8,897.7,1937.7,909.5,1949.3,913.9z"/>
				<path class="st23" d="M1942.5,925.9c0,0,12.3-10.6,19-6.1C1961.5,919.8,1959.8,934.4,1942.5,925.9z"/>
			</g>
		</g>
	</g>
</g>
<g>
	<g>
		<ellipse class="st16" cx="1514.8" cy="1029.2" rx="19.5" ry="4.2"/>
		<g>
			<path class="st25" d="M1528.7,944.9c0,0,17.2-9.5,13-11.4c-4.3-2-11.6,0-11.6,0s0.7-10.9-4.8-11.4c-5.6-0.5-7,8.9-7,8.9
				s-6.1-8.1-9.6-7.7c-3.5,0.4,4.7,17.9,4.7,17.9L1528.7,944.9z"/>
			<path class="st26" d="M1517.4,1029.2c-0.1-0.5-12.9-51.8,2.2-77l-1.2-0.7c-15.7,26.2-4.3,71-3.9,72.9L1517.4,1029.2z"/>
			<path class="st26" d="M1519.1,953.1c0,0,6.1,0.9,9.6-8.2c0,0-8.2-6.5-15.4-3.8c0,0-2.9,5.7,4.5,11.7L1519.1,953.1z"/>
			<g>
				<path class="st26" d="M1511.7,975.2c0,0,15.8-4.9,15.1-16.7C1526.8,958.5,1513.8,960.9,1511.7,975.2z"/>
			</g>
			<g>
				<path class="st26" d="M1513.7,1006.5c0,0-2.6-8.5,4.5-12.8c7.4-4.5,8.6-7.6,8.6-7.6s2.8,7.3-1.6,12.9
					C1520.9,1004.5,1515,1004,1513.7,1006.5z"/>
			</g>
			<g>
				<path class="st26" d="M1511.7,989.6c0,0,0.7-8.9-6.3-11.4c-7.2-2.6-8.9-5.3-8.9-5.3s-1.1,7.7,3.7,12.1
					C1505.1,989.4,1510,987.5,1511.7,989.6z"/>
			</g>
		</g>
	</g>
	<g>
		<g>
			<path class="st24" d="M1480.2,941.5c0,0-11-13-7-13.9c4.1-0.9,9.5,4.6,9.5,4.6s-0.6-10.8,4.4-10.1c5,0.6,5.9,8.7,5.9,8.7
				s5.5-5.5,8.5-4.5c3.1,1-7.2,15-7.2,15L1480.2,941.5z"/>
			<path class="st27" d="M1480,941.2c0,0-13.9,0.4-3.3-4.2c0,0,0-6.6,6.2-2c0,0,3.8-6,6.1,0.7c0,0,5.5-5.9,6.1,1.6
				c0,0,4.6,0.9,4.4,2.5c-0.2,1.6-5.1,1.5-5.1,1.5l-5.4,2.6l-8.9-2.3"/>
			<path class="st28" d="M1487.5,950c0,0-5.5-0.1-7.4-8.8c0,0,8.2-3.6,14.3,0c0,0,1.8,4.6-5.7,8.8L1487.5,950z"/>
			<path class="st28" d="M1517.1,1030c-0.4-0.4-42.2-42.6-32.3-82.5l4.4,1.8c-9.7,38.9,28.8,79.1,29.2,79.5L1517.1,1030z"/>
			<path class="st28" d="M1487.2,970.3c0,0,5-14.4,16-14.2C1503.2,956.1,1499,973.8,1487.2,970.3z"/>
			<path class="st28" d="M1489.4,988.4c0,0-7.3-13.4-17.2-8.9C1472.2,979.4,1473.8,993.3,1489.4,988.4z"/>
			<path class="st28" d="M1499,1004.7c0,0,0.1-16.9,10.7-18.2C1509.7,986.5,1512.9,1002.2,1499,1004.7z"/>
		</g>
	</g>
</g>
<g>
	<g>
		<g>
			<g>
				<g>
					<g>
						<path class="st17" d="M193.6,1030.1l-1.9-1.9c0.2-0.2,18.4-18.4,23.6-40.6c3.9-16.7,14.4-20.8,24.5-24.8
							c4.1-1.6,9.6-2.7,13.4-5.3l0.3,1.6c-4,2.7-8.4,4.5-12.7,6.2c-9.9,3.9-19.3,7.6-22.9,23
							C212.6,1011.1,194.4,1029.3,193.6,1030.1z"/>
					</g>
					<path class="st17" d="M213.2,998.5c0,0-10.9-5-7.5-18.1C205.7,980.4,218.7,985,213.2,998.5z"/>
					<path class="st17" d="M218.2,983.9c0,0,5-10.9,18.1-7.5C236.3,976.5,231.7,989.5,218.2,983.9z"/>
					<path class="st17" d="M230.8,968.5c0,0-3.1-11.6,9.2-17.3C240,951.2,244.8,964.1,230.8,968.5z"/>
				</g>
				<g>
					<g>
						<path class="st17" d="M213.9,993.9c0-0.2,4.2-19,3.8-30.6l1,0c0.5,11.7-3.7,30.7-3.8,30.9L213.9,993.9z"/>
					</g>
					<path class="st18" d="M212.7,957.1c0,0-5.1,0.8-5.2-2.2c-0.1-3,2.7-5.8,6.3-3.1c0,0-0.5-4.8,3.7-5c4.4-0.2,3.7,4.7,3.7,4.7
						s4.5-3.1,5.8,1.1c1,3.3-3.5,5.6-5.3,3.7L212.7,957.1z"/>
					<path class="st17" d="M212.7,957.1c0,0-0.1,6.2,6,6.1c0,0,3-0.4,3-6.8C221.7,956.4,216,954.8,212.7,957.1z"/>
				</g>
				<g>
					<g>
						<path class="st17" d="M198.5,1025.2c0.1-0.1,12.5-15,21.9-21.7l-0.6-0.8c-9.6,6.8-22,21.7-22.1,21.9L198.5,1025.2z"/>
					</g>
					<path class="st18" d="M228.4,1003.8c0,0,2.5,4.5,4.9,2.8c2.4-1.8,2.9-5.7-1.4-6.9c0,0,4.1-2.5,1.7-6c-2.5-3.6-6,0-6,0
						s-0.3-5.5-4.4-4c-3.3,1.2-2.3,6.2,0.3,6.5L228.4,1003.8z"/>
					<path class="st17" d="M228.4,1003.8c0,0-4.8,3.9-8.5-1.1c0,0-1.5-2.7,3.6-6.5C223.5,996.2,228.2,999.7,228.4,1003.8z"/>
				</g>
			</g>
		</g>
		<g>
			<g>
				<path class="st22" d="M191.3,941.2c0,0-17.7,7.8-17.1-4.9c0.6-12.7,13.5-10.4,18.4-3.5c0,0-11.4-16.1,3.4-18.2
					c14.8-2.1,8.1,17,8.1,17s10.4-16.4,17.3-6.9c6.9,9.5-5.3,24.8-16,14.4l-13.9,1.1"/>
				<g>
					<g>
						<path class="st23" d="M190.4,1028.5c0-0.3,10.7-59.9,9.1-78.2l1.6-0.1c1.7,18.4-9,78.3-9.1,78.6L190.4,1028.5z"/>
					</g>
					<path class="st24" d="M191.1,941.1c0,0-7.9,1.7-8.3-3c-0.4-4.7,3.8-9.3,9.7-5.4c0,0-1.2-7.5,5.4-8.1c6.9-0.7,6.2,7.1,6.2,7.1
						s6.9-5.3,9.3,1.2c1.9,5.2-5,9.1-8.1,6.3L191.1,941.1z"/>
					<path class="st23" d="M191.1,941.1c0,0,0.3,9.8,9.9,9.1c0,0,4.7-0.9,4.1-10.9C205.2,939.2,196.1,937.2,191.1,941.1z"/>
				</g>
				<path class="st23" d="M199.6,969.2c0,0,8.6-16.1,19.1-12.5C218.7,956.7,212.4,971.3,199.6,969.2z"/>
				<path class="st23" d="M197.2,985.8c0,0-2.5-13.5-15-14.5C182.2,971.3,182.6,986,197.2,985.8z"/>
				<path class="st23" d="M194.8,1001.9c0,0,9-16.7,18.2-14.6C212.9,987.2,217.2,1003.9,194.8,1001.9z"/>
			</g>
		</g>
	</g>
	<ellipse class="st16" cx="190.3" cy="1030.2" rx="19.5" ry="4.2"/>
</g>
<g>
	<g class="st29">
		<image style="overflow:visible;" width="641" height="703" xlink:href="2A20D90B.png"  transform="matrix(1 0 0 1 297.3967 335)">
		</image>
	</g>
	<g>
		<path class="st30" d="M829.6,883.5c-103.4-19.7-170.1-81.6-207.8-130.1c-40.9-52.5-57.6-101.1-57.8-101.5l4.6-1.5
			c0.2,0.5,16.7,48.4,57.1,100.3c37.2,47.8,103,108.8,204.8,128.2L829.6,883.5z"/>
		<g>
			<path class="st31" d="M869.9,860.4l2.5,4.8c0,0,3.5,9.8-5.4,6.5C867,871.7,865,867.5,869.9,860.4z"/>
			<path class="st31" d="M711,891.8c0,0-20.8-10.7-36.7-16.8c0,0-7.5-1.7-17.9-14.4c0,0-9.2-12.7-18.8-9.5c0,0,3.2,5.2,8.4,6.1
				c0,0,6.6,6.6,11.3,14.4c0,0,11,11,24.8,16.2c0,0,12.4,4.3,14.2,13.3C698,910,711,891.8,711,891.8z"/>
			<path class="st32" d="M816.1,948.7l0.6,3.8l1.4,3.5l-0.3,7.5c0,0-1.7,4.6,6.6,5.2c0,0,5.5,0,7.5-0.3c0,0,4,0.9,5.5-1.7
				c0,0,3.2-0.3,2.3-0.3c-0.9,0-2.6-2-2.6-2l-7.8-3.2l-3.5-3.5c0,0,2.6-9.2,2.6-11.3C828.5,944.3,818.7,944.6,816.1,948.7z"/>
			<path class="st32" d="M703.1,934.7l4.2,4.2l5.8,9.6c0,0,0.2,4.4,2.5,5.6c0,0-1.5,5.4,0.4,5.8c1.9,0.4,0.6,2.7,0.6,2.7l2.1-0.4
				l0.6,2.5l1.2-1.7c0,0,2.9-0.6,3.7-3.7l1.9-1c0,0,2.1,1.2,2.1,2.3c0,0,0.8-1.7,0-3.9c0,0-0.2-9.4-6.2-11.2c0,0-4.4-4.8-2.1-10
				c0,0,7.7-4.4,10.2-5.8C732.5,928.5,705,927.6,703.1,934.7z"/>
			<path class="st33" d="M900,839.4c-0.1,2-0.7,3.6-0.7,3.6c0.1,2.1-0.3,3.7-1,5c-2,4-6.5,4.3-6.5,4.3l-18.7,5.3
				c-2.9,4.3-5.6,15.5-5.6,15.5c-0.6,12.7-4.9,35.8-4.9,35.8c2.3,15.3-4,18.8-4,18.8l-5.7,6.1L847,940l1.2,2.3
				c6.1,3.5,6.1,9.8,6.1,9.8c1.2,8.7,6.6,11.8,6.6,11.8l8.1,5.5c-0.6,7.5-6.4,4.6-6.4,4.6l-3.8,1.7c-6.4,0.6-11.3-12.1-11.3-12.1
				l-5.8-7.2l-11-10.4l-0.2,0.2c-2.7,3.7-13.1,3.7-25.5,2.2c-23.1-2.8-53.2-11-53.2-11c-15.6-6.5-28.3-5.9-36.7-3.9
				c-6.1,1.5-10,3.6-11,4.3c-0.2,0.1-0.3,0.2-0.3,0.2c-6.1,5.8-11,6.1-11,6.1c-2.6,0-12.1-1.7-12.1-1.7c-1.7,3.2-0.9,9.8-0.9,9.8
				c-0.3,4.3,2.3,5.2,2.3,5.2c4.6,0,4.6,3.5,4.6,3.5l3.8,3.5c-0.6,3.5-6.6,2.3-6.6,2.3c-4,0.9-6.4-0.9-6.4-0.9c-4.3,0.6-4-1.4-4-1.4
				c-1.4-9.5-6.6-20.8-6.6-20.8c-3.8-7.2,0.3-12.1,0.3-12.1c3.8-2,9.8-2.9,9.8-2.9c6.4-19.1,13-26,13-26c5.5-3.2,7.2-6.4,7.2-6.4
				c12.4-10.1,73.4-9.2,73.4-9.2c20.2,0.6,56.3-5.5,56.3-5.5l9.2-41.6c0.3-10.1,16.5-15,16.5-15c12.1-4.3,17,0.9,17,0.9
				c2.9,4.6,10.1,5.8,10.1,5.8l9.8-0.3C898.8,830.9,900.2,835.8,900,839.4z"/>
			<path class="st34" d="M898.4,832.2c0,0-8.4-0.5-6.2,5.4c0,0,2.6,6.5,6.1,6c0,0,3.1-2,3.8-7.4
				C902.2,836.2,903.1,832.5,898.4,832.2z"/>
			<path class="st35" d="M863.3,830.5c0,0-2.5,1.5-3.5,4.6c0,0,4.8,3.1,6.4-1.5l1.2-0.6C867.4,833,864.1,830.3,863.3,830.5z"/>
			<path class="st31" d="M852.9,933.7L847,940c-2-1.8-1.4-5.5-1.4-5.5c5-3.3,4.8-14.4,4.8-14.4c0.8,6.5-1.9,14.8-1.9,14.8
				L852.9,933.7z"/>
			<path class="st31" d="M830.9,946.1l-0.2,0.2c-2.7,3.7-13.1,3.7-25.5,2.2c8-0.5,17.9-1.8,15.7-5.1c0,0,1.3-13.9-6.2-15.6
				c0,0,4-1.7,6,2.5C820.7,930.3,825.2,942.8,830.9,946.1z"/>
			<path class="st31" d="M732.9,923.8l-7.5-0.6c-3.9,0.9-7.4,5.4-10.1,10.3c-6.1,1.5-10,3.6-11,4.3c6.2-9.1,16.2-24.7,16.2-24.7
				c0.3-3.5,1.7-4.9,1.7-4.9C722.2,914.9,732.9,923.8,732.9,923.8z"/>
			<path class="st34" d="M899.3,842.9c0.1,2.1-0.3,3.7-1,5c-1.4-0.5-5.3,0.6-6.1,0.6c-0.9,0-8.4,2.3-9.4,2.6
				c-4.1,2.4-8.8,1.6-8.8,1.6l3.3-1.1c3.1-3,13.3-4.1,13.3-4.1l2.2-1.1c5.4-0.9,3-3.9,3-3.9c1.2-1.2,3.5-2.6,4.2-3.1
				C899.9,841.4,899.3,842.9,899.3,842.9z"/>
			<path class="st36" d="M843.7,843.3c0,0-3.7,1.9-3.6,5.4c0.1,3.5-1.2-7.5-1.2-7.5l0.6-4.7c0,0,3.6-0.9,4.4,4.2
				C843.9,840.6,844.7,842.3,843.7,843.3z"/>
			<path class="st31" d="M841,839.3c0,0,0.7,3,0.2,7.4c0,0-0.7,3.9,8.9,11.3c0,0,15.3,21-6.4,23.9c0,0-3.7,1.5-17.8-11.3
				c0,0-5.2-2.2-1.5-16.5c0,0,1.2-5.4,6.9-9.9c0,0,1.2-5.7,8.1-7.9C839.5,836.4,841.4,836.8,841,839.3z"/>
			<path class="st37" d="M862.9,831.9c0,0,2.1,0.4,2.1,2.3c0,0-1,1.5-4.4,0.6C860.6,834.8,859.8,833.8,862.9,831.9z"/>
			<circle class="st35" cx="863.2" cy="833.5" r="1.3"/>
			<circle class="st37" cx="863" cy="832.6" r="0.6"/>
		</g>
		<g>
			<path class="st30" d="M544.3,702.5C544.3,702.5,544.3,702.5,544.3,702.5l-0.4,0c-4.2-0.9-7.2-3.1-9-6.4
				c-4.1-7.6-0.1-18.6,0.5-20.1c4.6-21,1-28.5,0.9-28.6l3.4-1.9c0.2,0.3,4.5,8.5-0.6,31.4l-0.1,0.3c0,0.1-4.1,10.7-0.7,17
				c1.2,2.3,3.2,3.7,6.2,4.4c0.7,0,3.6-0.4,5.8-3.6c3.4-4.8,5.6-16.1-3.5-42.6l3.7-1.3c7.8,22.7,8.8,38.2,2.9,46.2
				C549.9,702.4,545,702.5,544.3,702.5z"/>
		</g>
		<g>
			<g>
				<polygon class="st38" points="528.5,646.6 451.6,592.3 404.6,513.6 426.9,500.2 471.1,574.3 543.4,625.4 				"/>
				<g>
					<path class="st38" d="M535.2,661.9L523,642.1c0,0-4.4-5.1,0.1-11.4c0,0,9.1-11.7,22.6-4.4c0.1,0,0.1,0.1,0.2,0.1
						c0.1,0.1,0.2,0.1,0.3,0.1l0,0c0.6,0.3,1.2,0.6,1.8,1l14.6,10.7c1.5,1.1,2.5,2.3,3,3.7c2.5,3.7,10.2,16.3,2.8,23.1l-8.2,7.6
						c0,0-4.5,1.1-5.3-4l-6-9.8c-0.3-0.2-0.5-0.2-0.8-0.4l-10.1-7.4l4.2,6.9c1.2,1.9,0.6,4.4-1.3,5.5
						C538.8,664.4,536.4,663.8,535.2,661.9z"/>
				</g>
			</g>
			<path class="st39" d="M422.6,479.4c0,0,18,4.3,19.8,25c1.1,12.5,7.3,28.3,13,39.2c0,0-10.4,15-25.4,19c0,0-10.4-11-16.2-34
				L422.6,479.4z"/>
			<g>
				<path class="st40" d="M364.2,935.6c0,0-10.8,9.2-5.5,21.4c0,0,23.1,20.3,58,17.1c0,0,15.6-10.4-1.8-18.1l-34.4-18.2L364.2,935.6
					z"/>
				<path class="st41" d="M357.4,953.9c0,0,28.7,18.5,47.2,18.4c0,0,2.6-9,12.5-15.7c0,0,5.2,1.5,7.9,5c0,0,3.1,13.1-9.3,17.2
					c0,0-29.7,3.8-58.1-19.4C357.6,959.4,355,955.3,357.4,953.9z"/>
			</g>
			<g>
				<path class="st40" d="M462,962.2c0,0-5.8,5.2-0.5,17.4c0,0,23.1,20.3,58,17.1c0,0,15.6-10.4-1.8-18.1l-34.4-18.2L462,962.2z"/>
				<path class="st41" d="M460.2,976.5c0,0,28.7,18.5,47.2,18.4c0,0,2.6-9,12.5-15.7c0,0,5.2,1.5,7.9,5c0,0,3.1,13.1-9.3,17.2
					c0,0-29.7,3.8-58.1-19.4C460.3,982,457.8,977.9,460.2,976.5z"/>
			</g>
			<path class="st38" d="M464.9,962.3c0,6,4.9,10.9,10.9,10.9l0,0c6,0,10.9-4.9,10.9-10.9v-29.5c0-6-4.9-10.9-10.9-10.9l0,0
				c-6,0-10.9,4.9-10.9,10.9V962.3z"/>
			<path class="st38" d="M365.8,935.6c-2.2,5.6,0.5,11.9,6.1,14.1l0,0c5.6,2.2,11.9-0.5,14.1-6.1l10.9-27.4
				c2.2-5.6-0.5-11.9-6.1-14.1l0,0c-5.6-2.2-11.9,0.5-14.1,6.1L365.8,935.6z"/>
			<path class="st42" d="M377.5,648.8c0,0-20.8-1.7,2.3,69.1l14.6,82.8l-30.8,122.7c0,0,3.8,9,10.8,13c6.9,4,16.9,3.1,20,2.4
				c6.2-1.5,45.6-102.2,50.2-140.6C444.6,798.2,399.1,667.3,377.5,648.8z"/>
			<path class="st24" d="M370.1,630.5c0,0-17.2,18.7,20.9,77.7l50.6,86.7L458.4,956c0,0,10.4,11.8,35-0.5c0,0,3.7-145.4-6-192.6
				c-5.9-28.9-42.8-109.8-42.8-109.8S405.5,625.9,370.1,630.5z"/>
			<path class="st39" d="M448.8,640.1l-1-15.4l-4.6-19.1l-1.5-90.4c-3-22.6-12-38.4-33.5-35.5l-14.5,0.9c-12.7,1.4-34,2.8-35.8,33.4
				v84.1l-1,24c0,0-2,17.9-1.9,21.5c0.1,4.2,2.6,11.9,2.6,11.9c37.7,9.1,28.5,8.6,71.7,5.8C453.6,659.8,448.8,640.1,448.8,640.1z"/>
			<path class="st38" d="M415.3,498.5l2.8-14.2c1.4-6.9-3.2-13.7-10.1-15c-6.9-1.4-13.7,3.2-15,10.1l-1.4,7.3
				C395.7,490.5,405.3,498.2,415.3,498.5z"/>
			<path class="st43" d="M372.5,395.5c0,0-30.8,17.7,5.8,66.7l0.3-34.7C378.6,427.5,390.2,410.2,372.5,395.5z"/>
			<path class="st38" d="M449,402.3l5.1,37.9c0.1,0.8,0.2,1.5,0.2,2.3c0.2,2.7,0.2,5.4-0.1,7.9c-0.1,1-0.2,2-0.4,2.9
				c-0.1,0.4-0.1,0.7-0.2,1.1c-0.1,0.4-0.2,0.8-0.3,1.2c-0.2,1.1-0.5,2.2-0.9,3.3c-4.6,14-16.8,23.8-32.1,25.8
				c-10.8,1.4-20.7-1.3-28.3-7.3c-7.6-6-12.9-15.3-14.5-27.1l-5.1-37.8c-3.1-23.5,11.3-36.4,32.9-39.3c10.8-1.4,20.9,0,28.7,4.7
				C441.9,382.5,447.5,390.5,449,402.3z"/>
			<path class="st43" d="M426.9,395.4c0,0-16.6,10.7-13.1,35l1.5,11.4l-8.1,1.1l-6.6-36.3c0,0,0.8-8.6,6.1-15.5L426.9,395.4z"/>
			<path class="st43" d="M373.3,396.6c0,0,24.1,15.9,71.4-7.9c0,0,3.6-2.5-1.4-6.6c0,0-23-22-59.5-2.2
				C383.8,380,368.6,388.2,373.3,396.6z"/>
			<path class="st43" d="M413,400.3c0,0,36.6-4.6,38.2-20.3c0,0-3.9,2.5-12.6-1.1C438.6,378.9,414.6,380.7,413,400.3z"/>
			<path class="st43" d="M374,394.8c0,0-6.4-2.4-4.3,19.6l5.8,37.3c0,0,0.5,18.6,17.1,27.7c0,0,7.2-7,4.2-26.1l-2.3-20.4
				c0,0,8.7-1.6,14.7,0.9l1.9-40.4L374,394.8z"/>
			<path class="st38" d="M457.7,433.6c1.1,2.3,0.1,5-2.2,6l-3.5,1.6c-2.3,1-5.1,1.9-8.1-1.2l-5.8-8.3c-1-2.3-0.1-5,2.2-6l7.2-3.3
				c2.3-1.1,1.8-5.5,2.8-3.2L457.7,433.6z"/>
			<path class="st44" d="M454.1,440.2c0.1,0.8,0.2,1.5,0.2,2.3l-1.3,0.2c-1,0.1-4.5-0.2-4.6-1.2c0-0.2,0-0.3,0-0.5L454.1,440.2z"/>
			<g>
				<path class="st45" d="M444.1,428.5c0.2,1.3-0.8,2.6-2.1,2.7l0,0c-1.3,0.2-2.6-0.8-2.7-2.1l-0.3-2.6c-0.2-1.3,0.8-2.6,2.1-2.7
					l0,0c1.3-0.2,2.6,0.8,2.7,2.1L444.1,428.5z"/>
				<path class="st46" d="M434.4,419.6c0,0,4.9-6.7,11.9-1.4"/>
			</g>
			<path class="st38" d="M407.9,444.8c0.3,2.5-1.4,4.8-3.9,5.1l-3.8,0.5c-2.5,0.3-5.4,0.3-7.4-3.6l-3.1-9.6
				c-0.3-2.5,1.4-4.8,3.9-5.1l7.9-1.1c2.5-0.3,4.8,1.4,5.1,3.9L407.9,444.8z"/>
			<path class="st44" d="M453.9,453.2c-0.1,0.4-0.1,0.7-0.2,1.1c-0.1,0.4-0.2,0.8-0.3,1.2c-5.7-0.3-8.7-2.8-8.7-2.9
				c-0.4-0.5-1.4-0.5-1.4-1.5c0,0,0-1,1.4-0.5C445,450.7,448.7,453,453.9,453.2z"/>
			<g>
				<g>
					<path class="st38" d="M370.2,697.7l-5.2-22.4c0-0.1-0.5-6.7-8.1-8c0,0-14.5-1.9-19,12.6c0,0.1,0,0.1-0.1,0.2
						c0,0.1-0.1,0.2-0.1,0.3l0,0c-0.2,0.6-0.4,1.3-0.5,2l-2.9,17.7c-0.3,1.8-0.1,3.4,0.4,4.7c0.8,4.4,4.1,18.6,14.1,18.2l11.1-0.4
						c0,0,3.9-2.3,1-6.6l-2.6-11.1c0.1-0.3,0.2-0.5,0.2-0.9l2-12.3l1.8,7.8c0.5,2.1,2.6,3.5,4.8,3
						C369.3,701.9,370.7,699.8,370.2,697.7z"/>
				</g>
				<polygon class="st38" points="337.6,684.7 335.5,569 351.9,523.7 376.2,532.5 361.3,573.3 363.3,684.2 				"/>
			</g>
			<path class="st39" d="M374,486.3c0,0-15.5-1.8-34.7,53.3l40.1,20.2l20.4-43.8C399.8,516.1,402.5,483.9,374,486.3z"/>
			<path class="st47" d="M367.9,554.1l9.1,4.9c0,0,1.9-9,5-17.3c4.4-11.9,4.5-13.6,7.8-17.3c0,0-1.9,4-4.7,17.8
				c-1.5,7.1-1.7,14.4-3.6,22.3l-10.2-4.7l-5.2,15.9l-3.1,81.4l-1.6-84.2L367.9,554.1z"/>
			<path class="st47" d="M438.4,508l4,48.3c0,0,2.1-0.7,3.8-2.8C446.2,553.5,440,514.2,438.4,508z"/>
		</g>
		<path class="st30" d="M825.1,880.7c0,0,16.9,19.1,40.1,17.9l1.4-6.4c0,0-26.5-1-38.6-18.1L825.1,880.7z"/>
	</g>
</g>
</svg>
