<?xml version="1.0" encoding="utf-8"?>
<!-- Generator: Adobe Illustrator 21.0.0, SVG Export Plug-In . SVG Version: 6.00 Build 0)  -->
<svg version="1.1" id="Layer_1" xmlns="http://www.w3.org/2000/svg" xmlns:xlink="http://www.w3.org/1999/xlink" x="0px" y="0px"
	 viewBox="0 0 393.4 146.3" style="enable-background:new 0 0 393.4 146.3;" xml:space="preserve">
<style type="text/css">
	.st0{fill:#F26419;}
	.st1{fill:#C6C632;}
</style>
<title>Asset 7logo</title>
<g id="Layer_2">
	<g id="Layer_4">
		<ellipse transform="matrix(0.6453 -0.7639 0.7639 0.6453 57.1152 273.4348)" class="st0" cx="323" cy="75.2" rx="40" ry="42.8"/>
		
			<ellipse transform="matrix(0.3049 -0.9524 0.9524 0.3049 220.311 336.2939)" class="st0" cx="340.5" cy="17.2" rx="13.8" ry="12.4"/>
		
			<ellipse transform="matrix(0.5443 -0.8389 0.8389 0.5443 138.3586 323.6925)" class="st0" cx="367.1" cy="34.5" rx="13.8" ry="11"/>
		
			<ellipse transform="matrix(0.7864 -0.6177 0.6177 0.7864 45.5586 247.0912)" class="st0" cx="380.1" cy="57.7" rx="15.2" ry="9.7"/>
		
			<ellipse transform="matrix(0.9986 -5.320740e-02 5.320740e-02 0.9986 -0.2932 16.5087)" class="st0" cx="309.9" cy="13.8" rx="9.6" ry="13.8"/>
		<ellipse transform="matrix(0.9638 -0.2666 0.2666 0.9638 -3.5097 72.1809)" class="st1" cx="264.1" cy="49" rx="9.6" ry="13.8"/>
		
			<ellipse transform="matrix(1 -4.014247e-03 4.014247e-03 1 -0.1837 1.169)" class="st1" cx="291.1" cy="46.4" rx="9.4" ry="13.8"/>
		
			<ellipse transform="matrix(0.3195 -0.9476 0.9476 0.3195 156.9321 335.3674)" class="st1" cx="312" cy="58.4" rx="11.5" ry="9.6"/>
		
			<ellipse transform="matrix(0.8063 -0.5915 0.5915 0.8063 8.6566 157.8593)" class="st1" cx="245.4" cy="65.7" rx="9.6" ry="13.8"/>
		<ellipse class="st1" cx="282.5" cy="106.3" rx="37.1" ry="40"/>
		<path class="st0" d="M0,78h12.4C22.1,78,27,82.6,27,91.9c0,4.1-1.3,7.4-3.8,9.6s-6.1,3.4-10.7,3.4H9.7v17.5H0V78z M9.6,98h1.9
			c1.5,0.1,3-0.5,4-1.6c1-1.3,1.5-3,1.4-4.6c0-4.4-1.7-6.6-5.1-6.6H9.6V98z"/>
		<path class="st0" d="M55.1,122.4h-8.7v-5.2h-0.1c-1.4,4-3.8,6-7.1,6c-2.4,0-4.4-1.2-6.2-3.4c-1.8-2.3-2.7-6.4-2.7-12.3
			c0-11,3-16.5,9.1-16.5c3.3,0,5.6,2.1,6.8,6.3h0.1v-5.4h8.8L55.1,122.4z M42.4,98.7c-2.1,0-3.1,2.6-3.1,7.8
			c-0.1,2.3,0.2,4.6,0.8,6.8c0.4,1.3,1.5,2.1,2.9,2.1c1.2,0,2.3-0.8,2.7-1.9c0.6-2,0.9-4.1,0.8-6.2c0.1-2.2-0.2-4.4-0.9-6.5
			c-0.5-1.3-1.7-2.1-3-2.1L42.4,98.7z"/>
		<path class="st0" d="M101.2,92L93,122.4h-7.9l-4.3-20.1h-0.1l-4.4,20.1h-7.8L60.4,92h8.3l3.9,20.2L77,92h7.7l4.2,20.4L93.3,92
			H101.2z"/>
		<path class="st1" d="M118.2,81.2c-0.6-0.4-1.3-0.5-2-0.4c-1.9,0-2.8,1.4-2.8,4.3v6.2h4.8v4.4h-4.8v26.7h-5.8V95.8h-3.1v-4.4h3.1
			v-6.7c0-6.1,2.3-9.1,6.9-9.1c1.2,0,2.5,0.1,3.7,0.4L118.2,81.2z"/>
		<path class="st1" d="M123.3,81.9c0-0.8,0.3-1.7,0.9-2.2c1.2-1.2,3.2-1.3,4.4-0.1c0,0,0.1,0.1,0.1,0.1c1.2,1.2,1.2,3.3,0,4.5
			c-0.6,0.6-1.4,0.9-2.2,0.9c-0.9,0-1.7-0.3-2.3-0.9C123.6,83.5,123.3,82.7,123.3,81.9z M123.6,91.4h5.8v31.1h-5.8V91.4z"/>
		<path class="st1" d="M142.9,91.3v3h0.1c1.2-2.1,3.5-3.4,6-3.4c4.5,0,6.8,2.5,6.8,7.4v24.3H150V99.9c0-3.1-1.2-4.6-3.6-4.6
			c-1,0-2,0.4-2.6,1.2c-0.7,1-1.1,2.2-1,3.4v22.6H137V91.3H142.9z"/>
		<path class="st1" d="M176.9,75.5h5.8v46.9H177v-4.2h-0.1c-1.4,3.1-3.4,4.6-6,4.6c-1.5,0-3-0.5-4.2-1.5c-1.3-1.1-2.2-2.6-2.6-4.3
			c-0.6-3-0.9-6.1-0.8-9.1c-0.1-3.5,0.1-7,0.6-10.4c0.3-1.8,1.2-3.6,2.4-4.9c1.2-1.2,2.9-1.8,4.6-1.8c2.4,0,4.4,1.4,5.8,4.2h0.1
			L176.9,75.5z M177,106.4c0.1-2.7-0.1-5.5-0.7-8.2c-0.3-1.4-1.5-2.4-2.9-2.4c-1.5,0-2.5,0.8-3,2.5c-0.7,2.7-0.9,5.5-0.8,8.4
			c-0.1,2.9,0.1,5.8,0.8,8.6c0.5,1.7,1.5,2.6,2.9,2.6s2.4-0.9,3-2.7C176.9,112.3,177.1,109.4,177,106.4z"/>
		<path class="st1" d="M209.3,107.9h-13.1c-0.1,2.6,0.1,5.1,0.7,7.6c0.3,1.6,1.7,2.7,3.3,2.6c1.1,0.1,2.2-0.5,2.7-1.5
			c0.6-1.5,0.8-3.1,0.8-4.7h5.4c-0.2,7.3-3.2,10.9-9.2,10.9c-6.4,0-9.7-5.1-9.7-15.3c0-11.1,3.3-16.7,10-16.7c2.5,0,4.9,1,6.5,2.9
			c1.8,1.9,2.7,5.9,2.7,11.9L209.3,107.9z M203.4,103.4c0.1-2.2-0.1-4.5-0.8-6.6c-0.3-1.2-1.4-2-2.7-2c-1.4-0.1-2.6,0.8-3,2.1
			c-0.6,2.1-0.8,4.3-0.7,6.5L203.4,103.4z"/>
		<path class="st1" d="M230.1,95.9c-2.7,0.1-4.6,0.6-5.7,1.5c-1.1,0.9-1.7,3.1-1.7,6.3v18.6h-5.9V91.4h5.9v4.6h0.1
			c1.7-3.3,4-5,6.9-5l0.4,0.1L230.1,95.9z"/>
	</g>
</g>
</svg>
